<mxfile>
    <diagram id="b4RBardiPLoGrMqbeJDh" name="Page-1">
        <mxGraphModel dx="1002" dy="649" grid="1" gridSize="10" guides="1" tooltips="1" connect="1" arrows="1" fold="1" page="1" pageScale="1" pageWidth="827" pageHeight="1169" math="0" shadow="0">
            <root>
                <mxCell id="0"/>
                <mxCell id="1" parent="0"/>
                <mxCell id="4" value="" style="shape=image;verticalLabelPosition=bottom;labelBackgroundColor=#ffffff;verticalAlign=top;aspect=fixed;imageAspect=0;image=data:image/png,iVBORw0KGgoAAAANSUhEUgAAAq4AAABLCAYAAACx6QUeAAAgAElEQVR4Ae1dz48dx3H2n+Z7cpF0SI4EExDwybmRIMI/QYAXizXJgyQDsSDEkp2Y3tVSQG6BYRvwag3RuSgWHMD0MgKcky/SqYOvu6u7qrp6puf9frv1gN3X09M/qr/pb+qbmp553wn+cQQcAUfAEXAEHAFHwBFwBI4Age8cgY1uoiPgCDgCjoAj4Ag4Ao6AIxBcuPokcAQcAUfAEXAEHAFHwBE4CgRcuB7FYXIjHQFHwBFwBBwBR8ARcARcuPoc2AwCV2fh3un1UFs3F0/Co4s3Q2XnCqGtk6u5Ur7fEXAE5hB488sQvvfLuVJj+9HWu1+OlfVSjoAjsE0E3oTzx0/C+c1EH1dnpk8+VF/twnXiWN72XZOT8uYyPBoUohGnBcI1BEkk2HHv/gPj7yxMa9LrcHJ/rsxtP4o+vtuEgBZ8P/9JCD//Sxoh0vHS8MsBgfmXEL73fi6/ACDeH2z57vv239wl6rsr9L3ATC/qCOwcgavTBxNBEvi07MO034RvNP2b5fPsPixffXU6LUZrHeZv4dcfX4aboHxnR7geqq924brz6T/e4TfffBuuf/dF+ORnL8LT5x/EP6SRh32rfTBhbcJMkWs2qjkgXG2BSuS7DieRUDQqRSzKjoQbs3/W5tKmJxyBcQT++m0In/xXCP/470nU/e2PQ/inT1Me9q3zEcL1yxC++2ltjYTr9adVzNa9MsUFKO3picmeQCXB/O5P4L7qp9cO8ntCl+d7JLZi6anNIbAdf1ntS8I1+8/Hl+H8VPqh7l1EUxTa/g0+UvitHECqIpTs0f6S8tl3EalMuHJbsJ8CPzw/hHDovtqFKzvOh5T80+s/h/d/9GH4welz8w/7UGadT0sG1lomDMuJSXtCSwI3AlgIUt0ibWsi2sRGDEkKXKovv2GnOAHI3b7lCKyEwH/+TwgQqlyI8fTfIyrKVd7CXrhwJaEaED39SQgQkNdIZzHLy/JuIGx74rAnOnl9nR4Wrkrg6naw3bPZKut5jsAoAlvzl1HcSf/W+JW5oI0ShWlMtn9r/Fau2/jqbhSXAkHohQQrfYfQRo2vwwkixKaNPfS1D7bHsk1f7cK1d2z2mA8SkmD9+KcvokDF1ST+sA95tH8d8TorQvUtjx4mN5fh5PGTcO/xk3AyuXYVE1yeBOpV6gIyqDYaoZz3NyeYnv2e7wgMIABBykXqd99T2yziuFi8IrrK6mOtKY9g4tY8hOy7n7JyLBpL5k+J1lgmi2CtrXlfsIOvdR0Wrsx+Phad7olqGoN/OwJLENiVv2xFX7Zyi8K19dFYGgchmpfIMWELf6eXDySbSbj2BGYwhOth+2oXrksYsoOyEKcUaf3Vb37b7RH7IF5RFnVW+TRXcbyRTsSVF6F0JMsFHs66rISincPfC4TrQAQXY3PhOgy+F5xBAEsAEE3VIqy3jbKrLBvQwhPbFGVFuty+fz+JWNqG+VHYTj0Qlde9RpsN0duDYFi4esS1B6HnbwmB7fvLVsAhUFIDLkn0ieCJ9k/d6KgM4lAb3G+REOW+mvs22q+/JdwkXGWu2PKIq4DDNxYi8Pn1F1GQIqo696HIK+qs8gEBiCzm90jElQQuXXUuIgC3eoFw9YgrB87TO0Dg49+Pi1YSs6iz9IPIJ0Uko4jFk/45koloK4QqrV9FWYqMoiz12/3mwvLL2s+cjcPC1SOuc1D6/g0jsEt/KSOuEINMeE75StMn2tFPLkrjrfa8BrUIV/K3EUfymTUCSwIWu2Fvz6/zcrEp08bewaJ+ab89lmR/xwblw7lYp1anvj3iOoXOHvaRGB1ZAkC3SEZErjWUQgZz58hbBSphsEaGXofVkKK03169Prq4lieAcpt/ggz6ira0XxPyBFDzPeUIrILA9w1h+M//EcJ//18Ib/4aAtJaMKLOog9bLgCBGm/fZ7EZRSzWrjIhS5HYRX2wwmiT3g5gLRWAQNZjgqhGWarHmotrcPUSBL4faV/jqhHx7XUQ2Lq/7EVLuQ9ivs8ciykKbf8m/BYTqZavLkK6lOtFVq181X9j42H7aheu5kzbX+YPn38QI64jt/9RBssF8MaB4U+PiOoKqLlSM64oC3HQuSCvIsWQcQuu4vhJo9O2OAF0yni2IzCKwN/8Syvi/vevtTYErBZ5eIhryQdCMj6E9WWKqmpxCNFHEdaeeFzS32jZ4Ygrj+h2Gnfh2gHGs1dCYOv+sliVhZzhB6Pve/wkPGI+VC8lENuxTdtH9vxWFK54joS9BYACRbUOCyRlu2O9GBzCQ1uqT/hs8qWNcC0DNxL799UbE66vnr0T3no2c2/s1bPw1tuPwsuvORa/D0/ffic8fcXzdPrr8PLhO+Ehr/j1Z+Eha+vrl4/CWw8/C6Lp0kyqP2tfKb+/xCpERJ3VPpjoxnvjhAi1W4ZoFWTUdXAVSCSzm1C5C8jAThCNwGb7lt5+UAb5piNQEJgTrn8whCvqDH/yQ1PX9OJ+Fn3Vglhss6guRKHYN3XrfkBkku3DwnWqP7aPlkJQ+/7tCKyKwK78JQQgfM3JKb2oP/nO6n8m3icO38j80lxa+i3WD4lm+FYSnOItO61wTXc/kZ/eNiCCTXE5QX4LwbaE6+C45ZjnZ8O4cI1C8Z3w1tvsjwnFeeGaBGoUj1HAPgtJq+Z83i4TpGkIXLjq8s/CS4hWVl8IXDSgBXPcZuOgunPCex7PtUts/dZHsTARoopPOekjUYkopQ4Sul7eqYUrsqN45a/nyFetbDLX/keFqzAmbSwinVHfsxyBGQR6SwUgWBF5XXupQF5zKiKS7NVX0Tz2XleU4w9mYT/yKCI7ORzjzQLWUgFqY1S4UvnyPfJDCaWwJxyB5QjsxF/mIMxJ/gGCm4sz+StUlu9jQ6kRUZapfwAg7xJlo+BN/hP50VcK0arfIiB9eF0ji/zsh1Hf8utFXJO/PmxfPS5cCXMhOnMkk4Sf+q5R1FwuC90ocmNZiNdtR1xT+1HMRvH9LLwSY0gDmxfeBMB2v2mxOX5oYO5DpF38cFYkIiKt7eSsV4NPwskpXnGFX9mgTxKt6eoopWt5vQibE4CuRuWtikLG2LwWrpWEV6dUHwWpHCNjfmFyvWqrdcly/3YE1kFgVw9nCeHKoq60bAAC8+cdgbqucKU+dDtauGLtK8ryNbLAlsrRw2PIE+PJbz6gftY5Hl7XEQAC2/eXyc/Bt9Ro5Ztwfsr8ohauatt+5kP6QjqaQrhSZvZvNciTdzQBG/KNdX9aTiB9JTWLvrj/lu1L+w7NV68pXAkCBDX5rXwlRnWEkwnYhy8/m1wqEJcAcEGMulb0l8qIqCkXzDlS+/BZePUSSxYo4pvGcCjCFetW38s/PPDrgddhoezIethypEAqIUZpT0fsRZFLIpTKGt+KrEaJJDrZ8oF5MqBfTkZOQJ5OvSWBS+Xzi5VtQzzXEViEAF5t9Xf/On4rHmVXeR0WF3rxgaz8eisShdgvfk3rl3UYWnDWPSrVibiSoNTtUN/UCglTnk95KMPT2CaBS+XxdgT/OAKbQGDr/pJFKKtwVZZr3ycEpRSAtaadPyxcdZ+xYfJ92OD+kafr67uEUBU2o76079B89YaEK7+Vj0FDJOq1rBFZ458dtZW3+1nUFC2o9a3UaCM+G4GbbdJC2hS91Oruv+ltAXjwCpHX169vojgFSZFG3iZ+gECODJObRzbl3tktk0i6FsggI7OVPJx0qV48UVxc5h81UOQTxGT9sBNN7yTASnvSERhGQPwAwcSPD2Cd6eIfIMhWFOHaEZdYCgBhGJcE4NVY7L2tUdSytaST613VGtclSwWioMZa3CyatVDV23FobNlDGeMw8l7QEegjsCt/OSpchd9pBCGNQwpDyhV1KVNHXHu+tpff85Ws/faXsw7bV29IuKoIayMsbXHaf5iKI0prVNOa1HrL31ijCgEqIq65nSxgixg+4KUCNHKQkSKvJFL5N/ahzCofEJDfIphNmxFa1XOXNLycJOv0VRxdGfajvahv2e5LBjjmnt4kAhCk1oNaJBIRaV1VtMLOKOryK68oAhrykoGyjdvyWaDyPNRdZ40rtaXboUhpwTHbo9fY0n7UJzz4N38oC+KW+qN6/u0IrIrANv0l2dQVrjE6yX0qBYCmgkHcF3KRaPs76SvJIvKR1Df1y/bHpA766P2pnRpEwn5uXwiy/zbIFN+scN+2Ha1t2ldvRrhqoaq3g47IhlDfAqBEr4FpjKS+jaUIeVnBS/lGAarSRFzjjiyan/0+9QlhewTCFaYjwoo1PFjLiqcn8Yc08hYtDyCA/NsRcATWRgBLALDm9R/+LQk0CFk8vIW8VZYHrG2QN+AIOALuL+/QHNiMcNVCsCNc65P/+U0Aca3rjHBFWw+fhaf8dVix/ZGIqxXpPeyHs+7Q3POhOgKOgCPgCDgCjoAjsAiBDQjXGtEsPUdhyR9+mo+4VlELQVrXxyIy+/RVW5/6sqOseS9by5recJDaefoMD2cZwtdaZkAd+bcj4Ag4Ao6AI+AIOAKOwF4RWF24UlQ1PqGvfkBAR2DZUgG67R+F40jENcLDhCsTo6b47K1z5TA39qW3IpjrY3k9TzsCjoAj4Ag4Ao6AI+AI7A2BhcI1CcgkGOs7WBvB1wjD/FaAh/XXrabWuLZRVCZcOVSxnxqd5btSOkdY45rYvDzhiNa4tuPxHEfAEXAEHAFHwBFwBO4uAuPCNUc6mx8VUO9DBZRVlGZgDYFZy+g1rpZIbfNiffqp2Gxb85YCigp/jT4ehZev8kNdB/we17s7FX3kjoAj4Ag4Ao6AI+AITCMwLlx1O0UU0o4kLun2fRW4+b2r+UcH0jte0/rS9HoqWS/V11FUJlxJpFrrUaNN7JVYKBv7TfWjTVTGWuMa31zwNQ3Ivx0BR8ARcAQcAUfAEXAEDgiB1YXrAQ3CTXEEHAFHwBFwBBwBR8ARuP0IuHC9/cfYR+gIOAKOgCPgCDgCjsCtQMCF6604jD4IR8ARcAQcAUfAEXAEbj8CLlxv/zH2EToCjoAj4Ag4Ao6AI3ArEHDheisO43ENQv7u8Xq2o62Tq/Xa8NqOgCMQQv+32Jejc3Xa/93y5a15DUfAETgOBK7Dyf2zsG2X7ML1OGbDhq18E84f58l1cxkePb4MNxM9dJ0Q6t5/EE6u0N6DcO++9WdNYpSvjg3ic7wuN3Q3JOE9etoRuL0ISD5ByJq8nDlfhIFzyu3F0EfmCNw+BBYFiK7Owr3T6wwCzin2eeTRxZuVgXLhujJ026/4zTffhuvffRE++dmL8PT5B/EPaeRh38ofTKzOZLp3PwtKNvm4cBUiszgwJoSFUTJf1C39k4C9DielPTQinWhttk8EPSaPxFbUPLU5BIiXH370SfjB6fPN8TKkqCefx72TuyUqzbIm14lzCROrrXsUNYEILU4ohK4ozRex3HY7Lfve3FHxlu46AsTLjfvLDKzpvzg3jAPQcEv4OF6h5+9QRvs8KxhEbU21gzJtkKn6Sd0PcVXnSyGa6nfKZHy08MW2eb6iYcx8u3CdAWhfu//0+s/h/R99GB0jnKP+wz6UWf6R0c6uI+oI19If25/IYJFJCtdS10wsEK5d8teGNVHqHk85Aqsj8Iev/hiFquYjba/HywcsUpFshOOrjiULR1z0NRzIjkPnR+GquJnFrGi3B8kS4TrjxNEFvwjuden5jsBSBLbnL2FJh1vlQpMEHrOaLuQ0J5AvOMoFn+JpbC7t5yIvCWhddq4dNg5tEzPbSvY5iz61HVYLIWh/7MLVxumoc0FCcoQf//RFFKi4msQf9iGP9i8Wr9lp2dGQfCUFYjFhak5ctn9cuHJypb4qIRcI1xKtlVd+ekxDjvmoZ4obv0sEOC9fnL8MELGb5eWcE8j86TqeHE3h+yPf23ZjJIjKkZNlvCrcWSJcWX3NxbptOPldHkTv69YhwHm5cX9JEUriioFeFJJcjGY+FQ4ZdVJW4nP0gR2eNm3ntsBf4Tvv5+1OO6gmON+1Se6QAhP2En9VAAzX1M2Sv3rewT6Oh2xX9jmy5RHXEZR2WAaOkCKtv/rNb7s9Yx/EK8qizsqf5gowt8SEaRWu2TEqB/Xo4nrhGlfL2gXClZ8krKYyiThROsU82xEYQmDbvEwn/XqiN42acEqlfHSa5FzgrbAsqG039jfAo3hHhjvt3vkC+bxcMUgm6rlE5vuWI7AKAtvmZeIP45NpZBKg5G9WEYg9nvbaivy1+Nbhe4oaz4wj1pXBIBpTPA9AtF6l51rqGlYTkCYT9pa2sn+uwrspPpvhwnUWot0W+Pz6iyhIceU496HIK+os+SQnKSdojYhkJ4dJnIlhOZvUxgwRlhiF2zHCkeJk0DrccttGiedqfx0XJ8oiU7ywI6AQ2Dovo+DkURRlwHDERDrRpQ6x6VUL0inhOsDJsoa+6cgzHIHlCGybl9HPCb9k2ZgCOkmIKf5Zxa28juCMwtXov2tXp53eecAyhecVraBtYCJ3RICiHe6PsT1Sj9vC0y5cORoHkCYxOrIEgG6RjIhcPjQxiYQjAgGzWMyONAlCLSDfxLVq9x4/mYiyJAKjfp2gNY+EZi9ae3KFsrpfjEILXD6ymhZjrNmecgRWQmAXvEzOBRde1gUhd45TQ1DlDEcGbog+BNfThV/iX70ITHzNERftxGAO2rAiQMpU6yJYFfFNR2AYgW3zshfx1AaWcpFLFn91DbVt8DSWyNysPpTuoljr3Glf6zcj58FbxXXRbjGp9dPkr/k3F6Koms4r/JxxFq6YwC11H1+GKxeuBe1bkfjh8w9ixHXk9j/KYLkA3jiw8gcTuTgiJlynGry6DOcXKSIbHRHdPlARF5rYNzcjr73QgtSF69Qh8H27RWB3vEzCM53kuQNSgrQ7fFWu4zimXn8nmsb5gQtScb5gJXU5tosnXbhyNDy9LgLb5mURpDOGlnLggXnhOdeAvaQn1VJCEv4avC5+m7XdEcBFVIo6qd1WvGpfzNrPSYyX/Hu7t81B/7w8ttt+23q9HI+49pDZU/4qRESd4Y/lyJTgLFdGPL84rzfh/JQ9vHVzGc7F24YHxW9jsCbLhHDldk2kOVGa7jzDEViAwNZ52dhCArZGb4pzbMryjOSMytzvODJeYzKtBemUcJ3gYj2n1PFM9us7HYEBBLbNyyj4hNizjOIXi4p/VnErbyFPo13FJ7MGO+3E8tYdTLN8GkPlLI+i1nQ5x7Due0n0z8tj24VrD60jzN/2rQ8TEj55kRZElYKyTECUs4gTn8LkkSLeY0uIOnllP2kta68d3ma6PVLbUft80xHYAAJ74aVa19p1Pnx8MeLDeMO5zcvxdKxTHRIcVnEyo8KVt5fT5Vxh7PMsR2ATCGydlyP8ya/LSpzJF5ymb5wY8VA/tT4uYk2f12sH+cKv57bM8toX134pZUVc0/mJn0fqeUifC7Bt2k8dzHx7xHUGoF3vpsXmeIny3IdIu/ThLGo3RnAQJVEkK5OymdQ52ooGsI/qxXJ8wsp0naAQrnIyi32CWDVye3Va69Q1rthfozeSGLUujdW/HYF1ENglL7md0RkQz7KDrJzhJZE2nGbDYV0nr09l3Cv8R1EtXMsac3YuEOUkx+XSgHmHaFjnWY5AF4Ht89LglLIm+lHGn7RWvfomVdzeHOEp1dQXp5SP7147sY5hE8pz22NbbYDJir6Wi9vcvxSj8jwg/TMLNt1chpMVfkHLhSs/6AeQxrrV9/IPD/x64HVYKDuyHrYMLU7gJCzTT7VyUUil5skqhCtVi99TorGdzNUJa6eGdkA0nk956IinkwFJ4FL563BSHL4w0DccgcUIbJuXUqBm8zJXhYMg/jZzOzsb7YR6jowjgDZZvVnhiotP1Ck2cF7zNDrJApfKr+iouLmedgQIgW3zMvXT4RZdKBprWiOfxYPJ2WJTKE4IznKhmOtn/le/SUiw9llwiO9tBHZuS5xfYgXyoby2TItzRN61VLgi8NUIWtlNd8uFaxea/e2gtwXgwStEXl+/vikvOkcaeSv/AIEYFonMTExFtDjROyRYXbhORGOZ84SZkRwXdEWmharezgMjB5mfcmxJKQDwDUdgGAHOy19cfBa+Yj9AsBFeRpHJ+WFESLK1iZu8LLu9z0c0KlzV+tTCG8an1Gzm3cVZXk6ghareJoPPyq1BGYXlxnraEViOAOflNv2lxbly19E0u/rVErEsF3uoYOwnHnJfKM4L1jlhsJ3sU4stfEmQsH+iPbLPqEtivbZfg2KNQMV55fFlOBd3U4URkxsuXCfh2d9OkJEiryRS+Tf2ocx6H5qgFhmo5VSmucIDmSIJqQ3pROvkRT5NYJSldHp9Rm3XuMqLhO3b1hIl2VCcbrwirv3RiPzbEVgVAXCOHgjhfKT0Zni5qnUr1stOhN40EC8Y6YHLRrjSa2/6vDIdvIhKGVxf0XSv5ggAgd34y4p1muN9DtSSR5QC15kwTT5c+V8hoqW/hT8W/lz5+uqXgQkugNtliqNouXAdRWoP5XAbBGt4sJYVzhJ/SCNv0fKAPdjuXToCtxUB4uWPP/o43vlwXt7WI+3jOiYEiJe78ZdZePHI6DGBdeS2unA98gPo5jsCjoAj4Ag4Ao7ArhGgu40qKrlrM+5gfy5c7+BB9yE7Ao6AI+AIOAKOgCNwjAi4cD3Go+Y2OwKOgCPgCDgCjoAjcAcRcOF6Bw+6D9kRcAQcAUfAEXAEHIFjRMCF6zEeNbfZEXAEHAFHwBFwBByBO4iAC9c7eNB9yI6AI+AIOAKOgCPgCBwjAi5cj/Gouc2OgCPgCDgCjoAj4AjcQQRcuN7Bg+5DdgQcAUfAEXAEHAFH4BgRcOF6jEfNbXYEHAFHwBFwBBwBR+AOIuDC9Q4edB+yI+AIOAKOgCPgCDgCx4iAC9djPGq31mb8jN66v0JCv2byIMjfRj5c0MRvw69p5tXpuvitaYBXv6MIgHe37Lfb7+iR9GEfOgKb5Np1ODnCn6114Xroc/RO2dcKV4i6e/eNP062qzNWhjvP/HvSTX0l7kR9o6+mPhPFi+uqvuPxlSeioTFb8+LmMjziuFhlPO9IEKgXYJj/Yxdhch6JgWJurCAsby6eDPYdQgAXTq9zt9J+zuFHF2+Eab7hCDgCCxHYENfA72PkowvXhfPl+IsnMScmqym+LIGVRm8JK9FeA5IhIIuD44Ut4WrZoa4Sr85mycejmk1UUpwEmD1w9qadrMxA36x04H1bON4jcaH77onSKEhGxLaFI7fM04eHQObD1ajo7AnXlH9y+qDDEy0yaa7ofDnPkpjulMm80cL3WB3l4c0Nt2j3CCQeXXU6ludz4hAVNnxgDIiMBFrownUzXAMH+YVkN33AQRAXrjSvDvD7m2++Dde/+yJ88rMX4enzD+If0sjDvtU+iUBCaEbhygmUoyc60kMiqRFzRErVBgzMolj0R/nUDrUrIpuJ+Fzo1fFOCVfYou2QeU2bHeHalKsG1FRHuGqHTRWG2kRhYEL40LZ1ItHlqCP1PdyvquebLQLEyw8/+iT84PT5hnip+0mcKpHWyBHtDHUdw7GqenCuDRd1M3m7P2eMfjptaB64cO0A5dlrI0C83Ky/hFlcMGrfksyOopWdn5M45HxNfJ7m3kiZPkyjXNPl7BaVj7UL7S3XheveoJ/u+E+v/xze/9GH0THCOeo/7EOZ5R+DHJZwhebEbfoinhJ5p4gny5No5eSdsxa2yfK281Sk0uLx5jKc8NuRQtyhD3XyYcI1nXBkZElfkRYxgeHovvMQeycHMZ4oKmRfpW1hcxay7MRYkDTa0PambYlrqe+JRQj84as/RqGq+Ujbq/OSmZGPaZkLZVfiYJufOM2PO8pMz2XFgdJHSqBu5Tr6pfnTcrTtp7ateSDbVZ36piOwIgLb85fM73X8ZAwyFH7QADIni/9M25VTVI5/z5fZBNfaNqQPKucRy99wc/eYduG6R/B7XYOE5Ag//umLKFBxNYk/7EMe7V8uXg1ydAgZJ3ievGmyV4dk2h4dLndw49Gd1B5so/opRwi90umUcE0nmnLLPQvw6uzRhxqHEq5TJxfgUNuqwjWKdhExbk8GaNceTxlYTSwRruXkWKvr1HC/uqJvFwQ4L1+cvwwQsZvjJbpJ3Lw34zDSXFNzGNUj/1J+cxFZRkEJJkYj/+V8LXOcOB2XK/ALWWpn+lvzBdtT/Jpuzfc6Ai0CnJeb95esvwE/yUqnC8fCZcPv8sIxPVKmqVQyRrmmy5UGREL5WLFv/xsuXPd/DIQFcIQUaf3Vb34r9vEN7IN4RVnUGf8Y5OgQkjs/nu73lURjdHrk8G76pds9sG1V4Xodzh/D+ab6RE5816gxejQIqYRrueLsCNHi1NFcJ+LaE4q9/AaLJcK1Y6cch8S16c8zJhHYOi8jB5+E8wv+oKEUk/x4nlwxrpHlsY16sZgEbm4DFzeRk9Tm9HyIvMG8Ko43d5L7gC0jApR4SCZie6QelfdvR2AKga3zknce5357wdj1jaK84Xd52zE9UqapVDJGuVa4Pec3NPdLT/tPuHDd/zEQFnx+/UUUpLhynPtQ5BV1xj8GOQTBUktpcpNzM+qYHbJyRptmFZGJ+tV5QyDaQk+KT2kraxA2ZPJxsjaOE+Vy1BLlmv2sSeyfF64JB1EutyHGI4REEhQkSLhIiWIcES/rRKIFLrOVJ0W/fIenhxDYPi97ZkCgts7SKp2E6lk4z3O0HHOaI/Qd70IQt3lLSQzLuUdCt37rec25leqehavI/1on5j++DFcz/OLWeNoRmENgp7zs+DTwzvQZonzyCZJbmtdWGXnxuAmuNT7MBFn6WLPIHjNduO4RfKtrEqMjSwDoFsmIyK19JXIIonWcTA2WGnVqgyzFygnSsiLdJHOaTKAV5yvqbZhULGoKUgtsRL9p3aBw3KwuFY0nl9PruEZYt2WPh2qybyYyYsxGDfUAAAW8SURBVC62GS6lpC5XdsjEcL+ymm9lBLbPyx7Ug8I1zoOzLHKvw0mcf1mc0hyh7ynhas0xZhqctJj/bJ+V1E5yjl9WG57nCPQQ2CkvOz5tTLi2I0gXmvwCkvnPtvhszijXdDm74Q37WLuTlXNduK4M3XYq/vD5BzHiOnL7H2WwXABvHBj/GOToEJK3GUk2u5Yyic/o2OAkmwXrvEWWjv2DwLCNE3ks4oqWQEZ5NauiPey2SON4mfgcaUfUZ3XjiBSWsT2G27CAZCIjtottS1REnPtjrZhIXBn6nhxAYPu87BkxJlzTvJJlk2PMc2NoqUDib50z9rwS879nds7XThLb+mJupgnf7Qh0EdgpL9W5nYzq+sZOeapHa9orHwzfXAvPpka5Fn0S84ddvlv+ZtaK3RRw4bobnId7WYWIqDP+McgxS7AsDOcmshCryQlWUo5YuJ5w1Q5VExkW4CQzUo6snXW0TLimE4K+/ZPWwdJSBCFcDdFZbMM+Jnjj+sQ5/LPR1rhpPP69GgLb52W2K3LRFozcwZR5Equ9Ceenl+EmvrbHmH/DQ56PsvT4w23jD0bquTjLp2FbvaAjEMLOeAmwO34ynveNc3Mvnx83KXoN38wLmwGayvfVuYZ+azuqy4PcdOF6YIdl+7c+DHJ0CCmhmROiqV0SaKgbiTu4Pi/1hTZkZFAIvWJQ62BTX/MOHw5WOn0jqqvEaBLfrW3RnFg2PRg2JdLppCLGA3HKTnhCFGjhWh4qI5GSwSjldLSN49jiVaD0xBAC2+dlzwx5XHulUn5bFvNOzsu2TG0T++Y5pPkj+5Dt07wvfRC39CvrSgFPOALjCOyUlz0/aeYbfrYZli6jt5sK0adWPq/GtcJJ2F2CI8pHEE9bEw4ix4XrQRyGagQtNsdLlOc+RNptPJxl9g2RBMdWJjuVIofXXrXFK0pDLII8bTutOKT6MqIjF6zDikJGMqmTJ8RhLIs+q93aLmzXE0U6sQjHvZDgawlXXAQUoQrj+YmLp7EvC1wq70KBzYzlye3zsmeTPq69cshXZTNf6/xNPOHbsjXlvOTOuNXyR7cpbWh4mZ1lk2/05VmOwBwCO+WlKVBhYfIL9CAwcqIf4UEbcJEFKUodXia30+fnBrjGxSpPR6PT+8+JmzcXZ+G8Pugydyh2ut+F607hnu8M61bfyz888OuB12Gh7Mh62NpzIpkgR5eQtVZNZZKqyIxorxZOqexAufi0y6NtHik0oqGxxdbBphPFfLSoibiSsMvLCLRdaFfnCecdsRvrN42fjc/ApYhiZlcCMWNzcZYjxlIgNKKFjgET1kI0037/HkJg+7zsmaGPc68c8nnZyqXIDThNzKn8ZD+9Nk62hvrzc7nM0Vy55Z68EBTlsw3np7WMtMG3HIFxBLbPywlOmEKU+GPMb+0rmgCQ7VvhN8gHrcU1LVT1doa9+onWz44fme2WdOG6XXxXap3eFoAHrxB5ff36przoHGnkrf4DBCuZ1KmUiSYI3Ck6mc0Iq9qqJOINtIQCoYWD5MVZWojOTlS2Xg3jJMSEJmunJJkwLHkTCTGe7MTpolbY1ghX4ype9YP6/OKgEcpluYGq6JtDCHBe/uLis/AV+wGCtXmJ4z0gGuXx1XOThGsVrWVgsX3uTBmHzL5V29rpsrso4B45Vime05yVvMxcb5x2sdQTjsAiBDgvD9tfLhqWWXizXOuIcu6DF/o30+gtZLpw3QKom2gSZKTIK4lU/o19KLP/T5787oj2fyjcgq0jAM7RAyGcj5Q+HF5uHQrvwBE4GASOx18eDGRHbYgL1wM+fLgNgjU8WMsKZ4k/pJG3bHnAlgdZIjY8orPlPr15R2BPCBAvf/zRx/HOx8Hyck/4eLeOwD4QIF4evL/cBzi3rE8XrrfsgPpwHAFHwBFwBBwBR8ARuK0IuHC9rUfWx+UIOAKOgCPgCDgCjsAtQ+D/AZCYWaWcGrqZAAAAAElFTkSuQmCC;" parent="1" vertex="1">
                    <mxGeometry x="30" y="40" width="457.33" height="50" as="geometry"/>
                </mxCell>
                <mxCell id="5" value="" style="shape=image;verticalLabelPosition=bottom;labelBackgroundColor=#ffffff;verticalAlign=top;aspect=fixed;imageAspect=0;image=data:image/png,iVBORw0KGgoAAAANSUhEUgAAA4oAAAE+CAYAAADLSe6yAAAgAElEQVR4Ae3dCZhcZZkv8HgFuTP3zp07DigJW1gMi4zEyCpLgAiKIAYQmUGBQQQXlgjjjIw4CHpFUJAAEWe40Yks7qNmRr0hCEFWIUICCWtiDGEJYYsBsna63/ucU3WqT1VXJx3wJPUlv36eeqrq1KnvvOf3VddX//5OnR4UEbF8+fLo6uqKnp6e7K4fAgQIECBAgAABAgQIrDOB7u7u2G67T8boMb+NEft+J3Yf/Yt451G/jhHvuDiuuPT6+P4Nk+La634e3/3ur+J7198aEyZMjO9//8a46uK74/KvXBdfvXhS/GTChDjwnefGqNG/iqPOvD1GHf/j2HTnz8STTz4Zr7zySmTbWN1Plo9e/O1vY8oWW8RtO+8cLz33XCxZsiRWrlzZ9qnZ+otmzozbdtopbt9ll1gwbVq+fpa1Ov0nqz2rM8uGr776agzKChYUO73b1EeAAAECBAgQIEBgwxFYtmxZbLv1p+P4C34fIw74dux+/P+LfU69N/bd59KYPGlyTJt2b/xu2h1x3/33xX33PxD3P3BvTL3vjnj37v8cO+15Vex75A3x4LT74sj3fjkOPe3G+NCXfhcf+9Kj8f7Tboqttz8zZs+enYfFVYlmwemlqVNjylZbxdMXXRiPfvzkmDJ8ePzh8cfbBs08VN55Z9w6dGjMPf/zMffz58aUYcPi8cmTY9GiRR0/MScorurV4DECBAgQIECAAAECBNa5QBashm7z6Tj6cw/Hbu++Jnb/u1/Gu0+bGrvvdUnc9ps74/77fhdT7/9t3Dv1d3Hv1Glx9z13xr333BP7H/CN2POTD8V7Tr8rHnx4Rhx9+FdjvxMmx/vPmxofOOfuOP4Ls2LEyKvjpptuymcW+9vRLDQtvO++PPTNOv/zsfLmKdH141/Fox89KW7eddeYNXNmPutWzEpm6z/7i1/ELUOGxFMXXBCvTroxum75TTzx2XPj5m22iQd//vP44x//2NFhUVDs79VgOQECBAgQIECAAAECHSHwwgsvxLZDx8QRZ8+M3fa6JvY4/lcx4mN3xd4jx8Z90x6Mhx98MB6Y8UDMeOjhmP7AQzHjoQfiwekPx777j423n3ZrvOesG+MPc2bGSR+4PPb9wG/isM/OjEPG3BVHfPaxGH7QhLjmmmti+vTpbfe1p7s7Xpk9O34zbFg8ddZZsfT7P4hXr/9eLPveD6Lr36+Lxz90bB7+pn/zm/lM4YoVK+LJG26IW97ylnjuC+dHXPuDWHrD9+Ol718XXddfF099akz8esiQeOCHP4yFCxd2bFgUFNu+HCwkQIAAAQIECBAgQKBTBJ577rkYuu3Z8d4zHohdRnwzD4p/c/Lt8cG//UHM/sMTMW/OH2L2nDnxhyfmxdwnno7Zcx6PObOfjgNHfjt2O2l6jPrEHfHSS8/Hx4+9JvY+YnIcePq9MfJTd8WoM6bHTvt9My666KK444472u5uFhSz7yHe/cEPxuNHHhlx2bh49aqrYtGVl8XycV+Ppf96Zbzw2X+OmYccEvecf37MuPjieOh974uFYz4bMfaK6Lriylgy9vJY9q0rY9mV34hXxl0ZT3/itLh58OCYee+9jbDYduPrcKGguA7xbZoAAQIECBAgQIAAgdULZEFxq63HxMjT7o+37fbN2Oejk2PEKXfFx/9hSix4aWHMf3pePPPcczFv/vx48pn58czzz8a8eS/EPvtcGe/4yN0x8pM3x5Ke5XHSCdfEsPf+KPb+5B2x38duj4NOnxrb731pXHDBBTFlypS2hWSB6eWXX44Z99wTN+68c8w9enTEF8+P7i+dH0su+Fys/JfzYsX5X4gXzj4rZh3x/ph1xBGx+DNjouf8L8bS88+LV7/0+Vj+xX+OOP8L0fPFC+KFMafFtL33iH/91KfixhtvjHnz5kX2HcxO+xEUO61H1EOAAAECBAgQIECAQJNALSieHbudcm8M2/+GGD7qx7H/yQ/E+/7p3pj6zLKI5a/Giq4/xtKuF2Jp10uxZPnLsXRZV9zwg1/EtbfOiZ/eMSsWzH0mjjjy4tjx/TfG8FPuiL1OvCP2OvXe2G7PK1YbFLOzfj7yyCPxo7Fj48bBg2P+hz8YXWeeGt1jzoyVZ34y4qxPxMrPfCJW/sMnI87+ZMQZp0acdVasGHNmdP/jmbHyM6dF9xmnxOKzPh6PHjIqLth77/jc5z4XP/rRj+Lxxx+PxYsXN+1vJ9wRFDuhF9RAgAABAgQIECBAgEC/ArWgeE7s8tG7YsQxk2Lo3uNi6PBvxfa7XRWjDro4PjX6yvj7D14VJ4weGyd88Btxwugr4uRjrokz/vbf49PHfytOOfEnMfrgsbHHfjfEiBOmxU4n3hLvOm5q7PzRe2LL3VcfFLMZv6eeeipuueWW+PanPhXTd9kxln3oiFh28t9G98l/F90fOy5WnHJcLP3YsbHi5A/HypM/HN0nfySWfOSYWHHSUdFz0jGx7CPHxKMH7R8X77JLfPSjH40vf/nL8ctf/jLmzp1rRrHfnvcAAQIECBAgQIAAAQIE+hEoguIOH7otdvzbaTH4wB/HkF3/b2y283fjTTtcGRsPHRubDL0mNtn23+JN234rNtn26th426tik22ujI22GReDtr823rjTd2KzPX8af7HXtfHW93wndj/6ntjh+OkxZI9vrXJGMSspO5tpNqs4a9as+K//+q+YcPjh8fDf7BTLjz44Vn7oPbH8mPfE8mMPiRXHHRpdHz40Vhx7SHSNPijiQ6Ni5egDovuoQ+Ox/feNb+2wQxz34Q/ns4nXX399TJs2LV588cX8hDb97Po6W2xGcZ3R2zABAgQIECBAgAABAgMRyILilludE9scdWcM3e36OODdF8XYb/w6vv6Nm+OrV9wUX7tsSnzjsjvisktvr11fdmtc9o0pcfnYW+LrX58SX7/89rjsiptj3NdujasvuT2OPf5bsemwS2PY8dPjr9/xzdUGxazGlStX5v/SYubMmfHDH/4wfvKOd8T8YVvEshGDY+W7hkTssVX0jNgiut85JL/fPXzLWPGOLeOP7xoazx6yf9yw1VbxoaOPjnPOOSe+/e1vxz333BMLFizI/4d9Fso67UdQ7LQeUQ8BAgQIECBAgAABAk0CWVAcssU5seUH7ok3b/v5mH7P7IiVyyOWvRKx/MWIpc9FLHk+/65iLFsSsWxxxPJXIpYtjHjljxGLX4xYvjBi6cLo6VoUz//x5TjwwItis1H/GZvues2AgmJWUFdXV2T/qmPq1Klx47Bh8cpuW0XPkEHRs/WgiKFviK6tBsWyrQfFiq0HRfdWG8WyIRvHq+8YHA/stkt8Zr/94vTTT4+rr746P8PqM888kx9y2okhMdtXQbHpJegOAQIECBAgQIAAAQKdJpAFxc2HnBObHf7b2HKHC2PZ9LlxwFFnvuZLTH0wRo++JP7q4P+Mv97pXwccFLPwlH1fccbVV8eMXd8WXcM2iZXbvSF6dtgoYutB0bXTG2P5298YK7bfKLq33yhWvm2TWDb0jTF/z23jzh23i8tPPTU/dHXOnDn5v9zo1JCY9b+g2Gm/BeohQIAAAQIECBAgQKBJIAuKmw35TPyP994W22x3Ybzw8GN5SLzviUdiTS9ZwIypM+K4I/8tBu0zMd6848AOPc0KysLTvO99L27efPNYsNNfROz4huh6+5/Hq2/bOOLtG0ds998idtg4und8U3TvsnH0ZJcdN4rlb9sont1/17h75x3jpiuuiCeffLJjDzkt4AXFQsI1AQIECBAgQIAAAQIdKZAFxU03HxObHDwltnjbxfHi9DmveTYxD4p33hfHZkFxr5/F/37bVQOaUcyC06yvfCUeetfO8dIu/ytW7vVn0bPnX8XyPd8aSw/4q1ixz8YRe/x59Iz4i+jafZNYvtebYtk7/3v07PmXEe/6s1gy/C9i/kHvirvevlP87rrr4qWXXsoPZc3a7cQfQbETe0VNBAgQIECAAAECBAg0BLKg+Nebnx0bj5wSQ7a+KF6cvWCNZxLLM48x75k49rBvxqDd/yP+codxqw2KPd3dMeP00+OR/feMl0ftEj0HDonuA7eIlYftGivfMyx63vPWWD7qzbFo/63i2T2GRveot8bK974llh+2TSw+aIvoOvAt0TNqSCzeb5uYf8R+cfff7Bz3X399R4dFQbHx8nODAAECBAgQIECAAIFOFKjNKJ4dG+0/JTbb8oKY+9yLrysoroiIDx98ZQwa8dP4n9tducqgmIXE+0aPjkcP3i9WfvjA6Hr/O6P7uD0ijh4Ry4/eM1Yes2f0HLFrzN5rWPx88OC4ervt4s6tB8e8PYbG8qOGx8q/OyC6jh4e3UfuHCtHvytWHLlbPPHed8eN++wTM+66Kz+TanZG1U77ERQ7rUfUQ4AAAQIECBAgQIBAk0AWFN/81nPiDfveHG8dfG4seOKZ1xUUs8Y/dPAVMWj4j+PPt75ilUFxxYoVcf/HPx6Pjdwjuj+yT3T//cHR85H9ouuUkdH98cNi6d8dHA+9c5cYO2xYHD9qVBxz9NHxiSOOiF8OHhzz9h0eK044MOKUQyOOHxndJx0Uc/ffOSZtvnlccd558etf/7rxfcWmHe6AO4JiB3SCEggQIECAAAECBAgQ6F8gC4pbbHp2DNr9lhgy+Isx/7GnYtac+2P6w3PioUfmx8zZc+KR2XPi0d/PicfmzI1ZT8yL3897KuY+PT/mP/1cPP30s/Hicy/FswteiBeeXxgRK+J9B381Bg3/RWw89LJVBsWlS5fG72fNismjRsWjB+0bXWcdF3HWcdH9mRPipROOiof2GR7/Z9dd45hjjonTTjstzj333PiXf/mXOP/kk+OmzTaL545/f8Rph0XPp98bTx6+f/x6003jk4cfnq8zceLEyM6Amm2j034ExU7rEfUQIECAAAECBAgQINAkkAXFbd5yZgza66Z4y5ALY8HvX4rfPTglbrtratx21/3x2/tui6lT743f3XdfTJs2LR548MGYOXNmPPTww/HYY4/FrFmzYvbs38e8efPimfnzI1YsjaNGfS0G7fSf8ZfbrvrQ0yzE/eEPf4j//MlP4mdvf3vMPvTQWHH+p+PZU4/OQ9+5I0bEcccdF+ecc05cddVV8R//8R/xy1/+Mq6//vr41+OOi4f32TO6zv54PHXMETF1px3jlAMOiFNOOSUuu+yymDJlSmT/T3H58uVN+9sJdwTFTugFNRAgQIAAAQIECBAg0K9AFhQHb356fujpnw8+N8Zf/fNYtnhhdL28PJYuWhSLlzwVixcvjMWv/rF+WRivvlq7v2zxolj8ysLGZcWyRXH/b2fGzsO+FG9458R487bfWOWMYldXVyxYsCDuvvvuuGbs2Pjp9tvHnGM/EDduummctffecfzxx8fnPve5+M53vhO33XZbHkqfeOKJmD59evzkJz+Jaw8+OB4+5OA8VJ4ycmScdNJJ8eUvfzl+/vOfx6OPPhovv/xy+I5iv13vAQIECBAgQIAAAQIECLQXyILiZpufExu/69fxl9t/N7bc4h/jPSMvjcP2vSoOO/DyOGTk1+OwkRfH+0deEoePvKR2fUB2/bU45MCvxaEHXhLvPehr+eV9o74ab9vxC7HxFt+NN+1/R/yvt3xplUExm1lbsmRJPhuZzQB+6ytfiRt23TXOOPLIOPnkk/NDSLPZw3vvvTefHczWzWYIs39/8cADD8QN110XPxgxIs4ZPTpOPfXUPCRms44PPfRQLFy4MP8XGe33et0uNaO4bv1tnQABAgQIECBAgACB1Qi88MILcccdd8RGg78cb/ybn8agHX8Yg4ZeG4O2+F4M2uq7MWjwDTFo6+xyfQza6rrm62z5ltfVLtnj23w/Bu3w3dhk1x/Hxu+YkM8IXnTRRXn7/ZWRhabFixfH3Llz8xPQXH311Xngu/TSS+NHP/pR3H///fms47JlyyJbN7tkJ8F5/vnn8wB53bXXxiWXXBKXX355/OxnP8sPiy1CYrZuJ/5kdWWzqVnoffXVV2NQVmR2J1vYqUV3IqSaCBAgQIAAAQIECBCoRmDRokX5oZzjx4+Ps88+Ow93xx57bLzeS3bYaNZe1m52qOiqfrq7u/PAlJ185s7bb49f/epX+XcMs5nBLMhmGaqcn7LbWXDMvoOYBcnsDKfZoamPPPJIYyaxvP6qtr0uHstqExTXhbxtEiBAgAABAgQIECAwIIEscD355JN5MMtCXTYDeMEFF7zuS9ZO1l52SGnW/up+su8SZrNr2XcW8xPjPPNMZCG2v0m2LGxlJ8PJguRTTz0Vzz77bP6dxP7WX9321+bjguLa1LYtAgQIECBAgAABAgQIJCAgKCbQSUokQIAAAQIECBAgQIDA2hQQFNemtm0RIECAAAECBAgQIEAgAQFBMYFOUiIBAgQIECBAgAABAgTWpoCguDa1bYsAAQIECBAgQIAAAQIJCAiKCXSSEgkQIECAAAECBAgQILA2BQTFtaltWwQIECBAgAABAgQIEEhAQFBMoJOUSIAAAQIECBAgQIAAgbUpICiuTW3bIkCAAAECBAgQIECAQAICgmICnaREAgQIECBAgAABAgQIrE0BQXFtatsWAQIECBAgQIAAAQIEEhAQFBPoJCUSIECAAAECBAgQIEBgbQoIimtT27YIECBAgAABAgQIECCQgICgmEAnKXHDFth2221jfb8cfvjhG3Yn23sCBAgQIECAQIcJCIod1iHKIdAqsCGExH/6p39q3e38frbchYHXwIb3Gmj7hmAhAQIECKxVAUFxrXLbGIE1FyiC4k1xWqyPlyIEtJPJHvNDgMCGJeD3vm9/F++Trje8P5ro81qf9/2tsGRtCAiKa0PZNgi8DgFB8XXgeSoBAskJCIrNXcaj2cO9DVPA78G66XdBcd242yqBAQsIigOmsiIBAuuBgA+EzZ3Io9nDvQ1TwO/Buul3QXHduNsqgQELCIoDprIiAQLrgYAPhM2dyKPZw70NU8Dvwbrpd0Fx3bgPaKsLJo+JY088NMbPmBbjTzw0v53dL1/Gz+ivqfpzLpwYCyJixoTseeOi39WzZp6fGOe1WSd/7oRp/W1onSwvbMoWx2Y15vuQmdXKyterG5QLzfepWD5jXJNp0WbRRu/zMtMxMen53iVNt4p2inYb7r19Vm6zdR/Omzy/qbnijqBYSLgmQGBDEOjID4T5+3ttDG2MifXxphgzeq9XPdbm7/1rMKZ2pMeG8EK0jx0l4Pdg3XSHoFihey2c9YaE3kGk77LeAFEOhcVgU1vWu05WdLtltZ1Z9XaLNnt3vL/1a8Flfky6sDd49T6rtry/fWqEniI8tQTc7HmNdXobrd/qp+0+A2tvcCsPvLUANi5mtITGxmYay+vPn5wFxbJL+33O222EwJp/0/43HmtsKQ/o/Tk2t9f7nNZbgmKriPsECKzPAh35gbDfoFgeOwbWK+XxaiDP6EiPgRRuHQJ/QgG/B39CzDVoSlBcA6zXv2otgPQfkEpbyMNMMQC1C4XtlkUUA1Ae/krBpQglM7JZypbAla2b11TaZvOycrAtaiqFudJ2SntQu1kKir1Bt/TcpoBWzGrWt1eqM68/n13Nmm0T0upBdPyEdrODRc31krLZ1aztrLas9tIHgNoa7YJir3fNZuKqZxdrDbUJiuV9L7tmt5vrrDfR+B+K6+MZT7N9yt78+xsA+lte2LgmQKCzBb74xS/GwoUL+xSZLbvgggv6LM8WdOTvfWmcyMfXbAwpjZltd6TNUSVNf1xs/QNqP2NpR3r0t8OWExiAwHrzvjCAfU19FUFxrfZgLSSsMijWZ7uaBpMJ4wZ26Gk9+EzKDzMtha36YDapfihr1nYjtLXbXmPwGhPnXVgPVXk4Kx92WQo8/QxuOW0+uNZqaWwzf6AU9hqBsLSsTZtZWOzbRq2mIiA3urM0qDeWRT1InzguxteN8vZKNZbdy9vKPxjkNWU1ZoGuVGvDq2Re32j+vNLj42eUXgOlDxlFkM8OE279MaPYKuI+AQIpCGQfBgcNGhTDhw9vCotZSMyWZY9l67T+dGQwah0nGkGx/r5fep9f1RjfNCY0xr5Wgeb7HenRXKJ7BAYssF69Lwx4r9NdUVBcq31XCgmr2259UCqHlVU/pRRcGiGrtCwfxOozVqWAkrWZDVztZxSnxaQLi1murK0/ZVAsvjeZDbL1bZQG4lUNtA2HfD/WJCiWwm3mUQzS+XaL/cxar63Xa9/8vNryVo9aVX0Ca6PY4kb9NTBhXJxX+mDRu61ivd5rQbHXwi0CBNIRyALhbrvt1hQWyyExeyy73/rTkcGozzhRHAFT+8Njbcyqjbn9vp/Xx978j7b5H4DLY2qrQu/9jvToLc8tAmsksF69L6zRnqe5sqC4VvutHhL6OWlJbynlYNJ+ICn+Ktk2UOWDUSmAFfeLYNS7ofxW0VZ5Ni273Wj7+fmxoD7A9Z4Mp1xj619USzWXwl/r4JmHqnpYyh5rvd9SZtPdtjX39xfeRnCuN9G6L30+ANT2rW29EybWw3NrCC8ZNJzbrHPhuBh/Yd9g3rRzLXcExRYQdwkQSEag9UNhMZPYX0jMdqwjg1GfcaI3KNaCX3Eoamn8a+ql3vG/+INift06PjU9p3anIz3a1GkRgYEKrDfvCwPd4YTXExTXauf1DhSr2mxvYBoX5cNFm4JcPYwseL5+pswiDGbBqxh4imXF/VJoa8zi1Q/HzENhKUD1mWXMnlu0kxdfCopNy1v2rLTNtsHrNQbFbCt5WGyEsnbbLc8S1h8v1ZN7ZrXny8rr9g2KxYBeHNZbOxNtfx8IyrW0zjyWXwMtQbIfR0Gx7Ok2AQKpCZQ/FGaHm64qJGb71pHBqGXsaBozi7EzW6ef9/HauF4bZ/Lb+dhVHg/679WO9Oi/XI8QGJDAevG+MKA9TXslQXGt9t9ABoVaeBg/uf2/qugdYNoVXmu/ESgbA1Z9ebtQVYTJ0mGQjefnh5qW2mx6fml5YzttaioNrq1BsXdWsB7SVrFun5ZL6/bWWwp7+eOl+3kDpZpLg3T7E+CUvsdZPxQ1386EafUTBmXfGx0T4yfU/oVJbw2lmdxsm33qqNXQmK3ts2N9FwiKfU0sIUAgLYHiQ+HqQmK2Vx0ZjLL38vpY1+cPqS1jRJ+eyceB3j8sNo3j9TG4dXwst9GRHuUC3SbwGgWSf194jfud0tMExbXaWwMICc9Pi/GTi0NYSn99bBvkSt+za7cfjRBYDFD1oNQU+LIn1me28uX1oNp7jGk97JSDU/acUuh6TUGxNJvWqKe0rF2bM8bVT2ZTrzE7w2mxXj2QFSepaQ5uxf63Q+o/zK1q4C7OdpfN+J43OTsDam32tzbT2BtQa39F7j0stTiZTd/rfmqLcNbT/mk8QoBAQgLZh8LssrqfjgxG7YJiaVntvb7NWJOPTc3jZ1NQzDDarFM26kiPcoFuE3gdAkm/L7yO/U7lqYLiWu2pAQTFop7iUJbifv26zwDT8njvLF3pENTG2T77CZYzJtbObpqdDbUcvuptF202z4K9nqC4iufWB8ws6JW3VwSupvBWGqT7zNzl7fQGtoKp5pd9z3BMTMr+f2IWNPusW6uvvK38L8jZCWgunBjZ4ae1Wcj+Dg3uu91aGB8TkzLr0kxtc2Bs8yFDUCy6zjUBAhuIQCcGo/LYW8wo9i7rHdPK41bxR9h8LCmNbc1/yFz9d9Y70WMDeSnazQ4S8HuwbjpDUFyr7rXBpHkg6aeA1xgUm1prGpjahZfetYswWAxgRY21gJY9t3WmsXdgLJ5Tvi6eX/yltPxYcbscxHoryW61b7vRZrFy0/6t7pDP2pOKAT67bnzPMAuMxZlX89Vq2++tr36/dDhw7lU/DHVVM4pFqeUZyDyc5v2bBcNiW5mvoNjwqt8wMLSKuE9g/RfovN/74n26Zl8bR7KzgtdCXj4e5Ee31MbJPmNVS5f1BsyWB/q523ke/RRqMYEKBfweVIi7iqYFxVXgvK6HGod99h52WASk9tctQa4RFGsDT/vntISj4gQvjcNUW9pst0NFncUhnPk6tUGxFoDK4SWrZQBttttOFcuyoFjUnYfGUm2t9/Pt94ax2kCfnQhoVb71fW/qi2wbvR8asgG/6UNBn+2W2q/PRp43ufcDRlZW/iEj67NiX1qsfEexBcRdAgTWa4HO+0DYPPbVxo/sKwfF99RLY08+ppTHzb5dJSj2NbGEwOoEOu99YXUVrx+PC4rrRz/ai/VYQFBcjzvXrhEg0EfAB8JmEh7NHu5tmAJ+D9ZNvwuK68bdVgkMWEBQHDCVFQkQWA8EfCBs7kQezR7ubZgCfg/WTb8LiuvG3VYJDFggC4pHHHFEfsr47I1yfb20A1lf99V+rb+vY337p+nbdu8HG/Iyr6s/zeuKY7qOG/Lv/7rcd0FxXerbNoEBCGwIITEbvP0QIECAAAECBAh0joCg2Dl9oRICBAgQIECAAAECBAh0hICg2BHdoAgCBAgQIECAAAECBAh0joCg2Dl9oRICBAgQIECAAAECBAh0hICg2BHdoAgCBAgQIECAAAECBAh0joCg2Dl9oRICBAgQIECAAAECBAh0hICg2BHdoAgCBAgQIECAAAECBAh0joCg2Dl9oRICBAgQIECAAAECBAhUJrBo0aJ4rZdBWVXLly+Prq6uyFKkHwIECBAgQIAAAQIECBBIX+C1hsTseYJi+v1vDwgQIECAAAECBAgQINBHQFDsQ2IBAQIECBAgQIAAAQIENmyBhIPi/Jh04aFx7InjYsaMcXHsidnt1su4mLHK/q23MWHaKteqPTgtxp84JiY9X6yaPbe4X2vnvMnziwdr189PjPNOPDTG14tYMHlM3xovnBgLmp/Vci/b7qHRp+2WtdwlQIAAAQIECBAgQIDAn0pgHQbFWgDqG+5aw149DBZ7XA6FRcDLl31XIZ0AABfjSURBVLWEwtZl5eflwWtaPWi2214pmDXa6Q2KMyZkj0+LBZNrAXX8jL5BsW8orNeXtVeEw/LtYv/y64HYFCG16YnuECBAgAABAgQIECBA4HULrMOg2Kb2fAZuYAEoD2JrEhRbNlcLcrXwVr4deTAs11CEwIm1GcU8HPY+XqtjYh46BzTrVw6H5dtN9fWG0qbFjTure7yxohsECBAgQIAAAQIECBBYY4HkgmIt1DXPAo6fsPpDT1ufVwt1tRDYmNW8cGJMmpEdytrOsSWcNYW8IkyWDj2tH3baaLscas0otgO2jAABAgQIECBAgACBDhFYXVC87rrr+v33GX/6s56uwYxidvhn/v3E1wjZCI5FaMvayWcTW9ptLCuH09qMYm8NbYJim7pq6/e2kwfc8vYbz2kJpY3lxY3VPV6s55oAAQIECBAgQIAAAQJrLrCqoJiFxOLSbr08KJ5xxhmxJpdVljjQoFieres3aGWBrPcQ0dp2W2YQ+5z8ph4Ss/aLGcBGwfVwlh16Wtpm8X3F7MQ6TYeelmvMtlO0V56JLN9ubCe7kW2rN1A2ZiWblrXuW62BNekL667Za5cXL68BrwGvAa8BrwGvAa8Br4H1+TUwfvz4RippFwCzZUVALF+3rpsHxVtvvTXW5NLYcrsbAwqKpbA3ofbdwHZBqnam0fmxoHGW0myDq5n5y2cPW06Kk0005ievqX9H8fl2s3mrabe8r+VwWL5dXicPiu2DYG21djXUHlmTvrDumr12efHyGvAa8BrwGvAa8BrwGvAaWF9fA2PHjs1zXRFLWsNffyGxCIzl9RtBsaurK3p6eoo2X/v1QIJiPcxNyv7VRDFL19hiLbAV/46isbhxoxQym2bnyrN3LUGxUVMRztpsI6+p3kZR05rMKM4Y1zwb+TpmFBu76gYBAgQIECBAgAABAgQGKJDNlGYhuPgpB781vb1OguKCGeNi0oyI2tlGs/9/uOrw1xwaa+s2HSJaSGTX9RBaPpdNvp38UNMiKNZmGMdPrv2PxHw2sz6z2dRuHhRLZ1UtAmR5FrFYJ1tWPF6up3F7NXU31nODAAECBAgQIECAAAECay6QfFAsdrk3KBZLsus2s33lh1cTKmuHsLbMKDae3xsUG4saN9oEuSIERjnU1sNo4zuOtTbHTxjTPKOYP3dMTJqRhdGsnvmxIL9dHI6aPe/QaA7BjWLcIECAAAECBAgQIECAwBoJbOBBMbOqhbosFJZnABtnJG2EuFbX1xIUS4e0FjOG5RnFUi29oa9eX7Z+KWw2qilCZMv/c2w87gYBAgQIECBAgAABAgTWUKBjgmLj31P0+13BUsjK1imCVn2HGzOK+eGiLeuW26w/r7y93lBW6E2r/+/E9iGyttZrCYqrOfS0mG3MZw1rW8nrbITV2sxhn5P11B9vGBS74ZoAAQIECBAgQIAAAQKvQaBjguJrqN1TCBAgQIAAAQIECBAgQKACAUGxAlRNEiBAgAABAgQIECBAIGWB/oLib37zm1jTy5/+rKcpy6qdAAECBAgQIECAAAECiQoIiol2nLIJECBAgAABAgQIECBQlYCgWJWsdgkQIECAAAECBAgQIJCogKCYaMcpmwABAgQIECBAgAABAlUJCIpVyWqXAAECBAgQIECAAAECiQoIiol2nLIJECBAgAABAgQIECBQlYCgWJWsdgkQIECAAAECBAgQIJCogKCYaMcpmwABAgQIECBAgAABAlUJCIpVyWqXAAECBAgQIECAAAECiQoIiol2nLIJECBAgAABAgQIECBQlYCgWJWsdgkQIECAAAECBAgQIJCogKCYaMcpmwABAgQIECBAgAABAlUJCIpVyWqXAAECBAgQIECAAAECiQoIiol2nLIJECBAgAABAgQIECBQlYCgWJWsdgkQIECAAAECBAgQIJCogKCYaMcpmwABAgQIECBAgAABAlUJCIpVyWqXAAECBAgQIECAAAECiQoIiol2nLIJECBAgAABAgQIECBQlYCgWJWsdgkQIECAAAECBAgQIJCogKCYaMcpmwABAgQIECBAgAABAlUJCIpVyWqXAAECBAgQIECAAAECiQoIiol2nLIJECBAgAABAgQIECBQlYCgWJWsdgkQIECAAAECBAgQIJCogKCYaMcpmwABAgQIECBAgAABAlUJCIpVyWqXAAECBAgQIECAAAECiQoIiol2nLIJECBAgAABAgQIECBQlYCgWJWsdgkQIECAAAECBAgQIJCogKCYaMcpmwABAgQIECBAgAABAlUJCIpVyWqXAAECBAgQIECAAAECiQoIiol2nLIJECBAgAABAgQIECBQlYCgWJWsdgkQIECAAAECBAgQIJCogKCYaMcpmwABAgQIECBAgAABAlUJCIpVyWqXAAECBAgQIECAAAECiQoIiol2nLIJECBAgAABAgQIECBQlYCgWJWsdgkQIECAAAECBAgQIJCogKCYaMcpmwABAgQIECBAgAABAlUJCIpVyWqXAAECBAgQIECAAAECiQoIiol2nLIJECBAgAABAgQIECBQlYCgWJWsdgkQIECAAAECBAgQIJCogKCYaMcpmwABAgQIECBAgAABAlUJCIpVyWqXAAECBAgQIECAAAECiQoIiol2nLIJECBAgAABAgQIECBQlYCgWJWsdgkQIECAAAECBAgQIJCogKCYaMcpmwABAgQIECBAgAABAlUJCIpVyWqXAAECBAgQIECAAAECiQoIiol2nLIJECBAgAABAgQIECBQlYCgWJWsdgkQIECAAAECBAgQIJCogKCYaMcpmwABAgQIECBAgAABAlUJCIpVyWqXAAECBAgQIECAAAECiQoIiol2nLIJECBAgAABAgQIECBQlYCgWJWsdgkQIECAAAECBAgQIJCogKCYaMcpmwABAgQIECBAgAABAlUJCIpVyWqXAAECBAgQIECAAAECiQoIiol2nLIJECBAgAABAgQIECBQlYCgWJWsdgkQIECAAAECBAgQIJCogKCYaMcpmwABAgQIECBAgAABAlUJCIpVyWqXAAECBAgQIECAAAECiQoIiol2nLIJECBAgAABAgQIECBQlYCgWJWsdgkQIECAAAECBAgQIJCogKCYaMcpmwABAgQIECBAgAABAlUJCIpVyWqXAAECBAgQIECAAAECiQoIiol2nLIJECBAgAABAgQIECBQlYCgWJWsdgkQIECAAAECBAgQIJCogKCYaMcpmwABAgQIECBAgAABAlUJCIpVyWqXAAECBAgQIECAAAECiQoIiol2nLIJECBAgAABAgQIECBQlYCgWJWsdgkQIECAAAECBAgQIJCogKCYaMcpmwABAgQIECBAgAABAlUJCIpVyWqXAAECBAgQIECAAAECiQoIiol2nLIJECBAgAABAgQIECBQlYCgWJWsdgkQIECAAAECBAgQIJCogKCYaMcpmwABAgQIECBAgAABAlUJCIpVyWqXAAECBAgQIECAAAECiQoIiol2nLIJECBAgAABAgQIECBQlYCgWJWsdgkQIECAAAECBAgQIJCogKCYaMcpmwABAgQIECBAgAABAlUJCIpVyWqXAAECBAgQIECAAAECiQoIiol2nLIJECBAgAABAgQIECBQlYCgWJWsdgkQIECAAAECBAgQIJCogKCYaMcpmwABAgQIECBAgAABAlUJCIpVyWqXAAECBAgQIECAAAECiQoIiol2nLIJECBAgAABAgQIECBQlYCgWJWsdgkQIECAAAECBAgQIJCogKCYaMcpmwABAgQIECBAgAABAlUJCIpVyWqXAAECBAgQIECAAAECiQoIiol2nLIJECBAgAABAgQIECBQlYCgWJWsdgkQIECAAAECBAgQIJCogKCYaMcpmwABAgQIECBAgAABAlUJCIpVyWqXAAECBAgQIECAAAECiQoIiol2nLIJECBAgAABAgQIECBQlYCgWJWsdgkQIECAAAECBAgQIJCogKCYaMcpmwABAgQIECBAgAABAlUJCIpVyWqXAAECBAgQIECAAAECiQoIiol2nLIJECBAgAABAgQIECBQlYCgWJWsdgkQIECAAAECBAgQIJCogKCYaMcpmwABAgQIECBAgAABAlUJCIpVyWqXAAECBAgQIECAAAECiQoIiol2nLIJECBAgAABAgQIECBQlYCgWJWsdgkQIECAAAECBAgQIJCogKCYaMcpmwABAgQIECBAgAABAlUJCIpVyWqXAAECBAgQIECAAAECiQoIiol2nLIJECBAgAABAgQIECBQlYCgWJWsdgkQIECAAAECBAgQIJCogKCYaMcpmwABAgQIECBAgAABAlUJCIpVyWqXAAECBAgQIECAAAECiQoIiol2nLIJECBAgAABAgQIECBQlYCgWJWsdgkQIECAAAECBAgQIJCogKCYaMcpmwABAgQIECBAgAABAlUJCIpVyWqXAAECBAgQIECAAAECiQoIiol2nLIJECBAgAABAgQIECBQlYCgWJWsdgkQIECAAAECBAgQIJCogKCYaMcpmwABAgQIECBAgAABAlUJCIpVyWqXAAECBAgQIECAAAECiQoIiol2nLIJECBAgAABAgQIECBQlYCgWJWsdgkQIECAAAECBAgQIJCogKCYaMcpmwABAgQIECBAgAABAlUJCIpVyWqXAAECBAgQIECAAAECiQoIiol2nLIJECBAgAABAgQIECBQlYCgWJWsdgkQIECAAAECBAgQIJCogKCYaMcpmwABAgQIECBAgAABAlUJCIpVyWqXAAECBAgQIECAAAECiQoIiol2nLIJECBAgAABAgQIECBQlYCgWJWsdgkQIECAAAECBAgQIJCogKCYaMcpmwABAgQIECBAgAABAlUJCIpVyWqXAAECBAgQIECAAAECiQoIiol2nLIJECBAgAABAgQIECBQlYCgWJWsdgkQIECAAAECBAgQIJCogKCYaMcpmwABAgQIECBAgAABAlUJCIpVyWqXAAECBAgQIECAAAECiQoIiol2nLIJECBAgAABAgQIECBQlYCgWJWsdgkQIECAAAECBAgQIJCogKCYaMcpmwABAgQIECBAgAABAlUJCIpVyWqXAAECBAgQIECAAAECiQoIiol2nLIJECBAgAABAgQIECBQlYCgWJWsdgkQIECAAAECBAgQIJCogKCYaMcpmwABAgQIECBAgAABAlUJCIpVyWqXAAECBAgQIECAAAECiQoIiol2nLIJECBAgAABAgQIECBQlYCgWJWsdgkQIECAAAECBAgQIJCogKCYaMcpmwABAgQIECBAgAABAlUJCIpVyWqXAAECBAgQIECAAAECiQoIiol2nLIJECBAgAABAgQIECBQlYCgWJWsdgkQIECAAAECBAgQIJCogKCYaMcpmwABAgQIECBAgAABAlUJCIpVyWqXAAECBAgQIECAAAECiQoIiol2nLIJECBAgAABAgQIECBQlYCgWJWsdgkQIECAAAECBAgQIJCogKCYaMcpmwABAgQIECBAgAABAlUJCIpVyWqXAAECBAgQIECAAAECiQoIiol2nLIJECBAgAABAgQIECBQlYCgWJWsdgkQIECAAAECBAgQIJCogKCYaMcpmwABAgQIECBAgAABAlUJCIpVyWqXAAECBAgQIECAAAECiQoIiol2nLIJECBAgAABAgQIECBQlYCgWJWsdgkQIECAAAECBAgQIJCogKCYaMcpmwABAgQIECBAgAABAlUJCIpVyWqXAAECBAgQIECAAAECiQoIiol2nLIJECBAgAABAgQIECBQlYCgWJWsdgkQIECAAAECBAgQIJCogKCYaMcpmwABAgQIECBAgAABAlUJCIpVyWqXAAECBAgQIECAAAECiQoIiol2nLIJECBAgAABAgQIECBQlYCgWJWsdgkQIECAAAECBAgQIJCogKCYaMcpmwABAgQIECBAgAABAlUJCIpVyWqXAAECBAgQIECAAAECiQoIiol2nLIJECBAgAABAgQIECBQlYCgWJWsdgkQIECAAAECBAgQIJCogKCYaMcpmwABAgQIECBAgAABAlUJCIpVyWqXAAECBAgQIECAAAECiQoIiol2nLIJECBAgAABAgQIECBQlYCgWJWsdgkQIECAAAECBAgQIJCogKCYaMcpmwABAgQIECBAgAABAlUJCIpVyWqXAAECBAgQIECAAAECiQoIiol2nLIJECBAgAABAgQIECBQlYCgWJWsdgkQIECAAAECBAgQIJCogKCYaMcpmwABAgQIECBAgAABAlUJCIpVyWqXAAECBAgQIECAAAECiQoIiol2nLIJECBAgAABAgQIECBQlYCgWJWsdgkQIECAAAECBAgQIJCogKCYaMcpmwABAgQIECBAgAABAlUJCIpVyWqXAAECBAgQIECAAAECiQoIiol2nLIJECBAgAABAgQIECBQlYCgWJWsdgkQIECAAAECBAgQIJCogKCYaMcpmwABAgQIECBAgAABAlUJCIpVyWqXAAECBAgQIECAAAECiQoIiol2nLIJECBAgAABAgQIECBQlYCgWJWsdgkQIECAAAECBAgQIJCogKCYaMcpmwABAgQIECBAgAABAlUJCIpVyWqXAAECBAgQIECAAAECiQoIiol2nLIJECBAgAABAgQIECBQlYCgWJWsdgkQIECAAAECBAgQIJCogKCYaMcpmwABAgQIECBAgAABAlUJCIpVyWqXAAECBAgQIECAAAECiQoIiol2nLIJECBAgAABAgQIECBQlYCgWJWsdgkQIECAAAECBAgQIJCogKCYaMcpmwABAgQIECBAgAABAlUJCIpVyWqXAAECBAgQIECAAAECiQoIiol2nLIJECBAgAABAgQIECBQlYCgWJWsdgkQIECAAAECBAgQIJCogKCYaMcpmwABAgQIECBAgAABAlUJCIpVyWqXAAECBAgQIECAAAECiQoIiol2nLIJECBAgAABAgQIECBQlYCgWJWsdgkQIECAAAECBAgQIJCogKCYaMcpmwABAgQIECBAgAABAlUJCIpVyWqXAAECBAgQIECAAAECiQoIiol2nLIJECBAgAABAgQIECBQlYCgWJWsdgkQIECAAAECBAgQIJCogKCYaMcpmwABAgQIECBAgAABAlUJCIpVyWqXAAECBAgQIECAAAECiQoIiol2nLIJECBAgAABAgQIECBQlYCgWJWsdgkQIECAAAECBAgQIJCogKCYaMcpmwABAgQIECBAgAABAlUJCIpVyWqXAAECBAgQIECAAAECiQoIiol2nLIJECBAgAABAgQIECBQlYCgWJWsdgkQIECAAAECBAgQIJCogKCYaMcpmwABAgQIECBAgAABAlUJCIpVyWqXAAECBAgQIECAAAECiQoIiol2nLIJECBAgAABAgQIECBQlYCgWJWsdgkQIECAAAECBAgQIJCogKCYaMcpmwABAgQIECBAgAABAlUJCIpVyWqXAAECBAgQIECAAAECiQoIiol2nLIJECBAgAABAgQIECBQlYCgWJWsdgkQIECAAAECBAgQIJCoQH9BcdGiRbGml0GZwa233hpdXV3R09OTKImyCRAgQIAAAQIECBAgsGELCIobdv/bewIECBAgQIAAAQIECPQREBT7kFhAgAABAgQIECBAgACBDVtAUNyw+9/eEyBAgAABAgQIECBAoI+AoNiHxAICBAgQIECAAAECBAhs2AKC4obd//aeAAECBAgQIECAAAECfQQExT4kFhAgQIAAAQIECBAgQGDDFhAUN+z+t/cECBAgQIAAAQIECBDoIzCQoDh69Ojo71L+X4t9/o/iyceNjOJSbLm4n10XP5ZFw4lL7TXjteH3w++C34VibPB+4P3A+4H3A+8HPlMXrwHvB2vv/aAIioV9OfiVb7cLiuXHs9uNoFgM6q4JECBAgAABAgQ6X2Dx4sUxd+7ceOihhwZ8mTFjRjzxxBOxbNmyWLJkyYAvS5cujZUrV3Y+igoJbOACRVAsGFrDX/l+OSyWlxe3BcVC0TUBAgQIECBAIEGBhQsXxuOPPz6gsPhaguLy5cujp6cnQRklE9jwBNYkKGaBMAuLRTBsvRYUN7zXjz0mQIAAAQIE1jOBbLbv2WefjYcffniVgXFNgqJZxPXsRWJ3NgiBNQ2KreGwfP//A/2DOtmsWxqJAAAAAElFTkSuQmCC;" parent="1" vertex="1">
                    <mxGeometry x="30" y="100" width="455.85" height="160" as="geometry"/>
                </mxCell>
                <mxCell id="10" style="edgeStyle=orthogonalEdgeStyle;rounded=0;orthogonalLoop=1;jettySize=auto;html=1;entryX=1;entryY=0.25;entryDx=0;entryDy=0;" parent="1" source="6" target="4" edge="1">
                    <mxGeometry relative="1" as="geometry"/>
                </mxCell>
                <mxCell id="6" value="switch-list" style="text;html=1;align=center;verticalAlign=middle;resizable=0;points=[];autosize=1;" parent="1" vertex="1">
                    <mxGeometry x="520" y="43" width="70" height="20" as="geometry"/>
                </mxCell>
                <mxCell id="11" style="edgeStyle=orthogonalEdgeStyle;rounded=0;orthogonalLoop=1;jettySize=auto;html=1;entryX=1.009;entryY=0.208;entryDx=0;entryDy=0;entryPerimeter=0;" parent="1" source="7" target="5" edge="1">
                    <mxGeometry relative="1" as="geometry"/>
                </mxCell>
                <mxCell id="7" value="dyn-component" style="text;html=1;align=center;verticalAlign=middle;resizable=0;points=[];autosize=1;" parent="1" vertex="1">
                    <mxGeometry x="519" y="123" width="100" height="20" as="geometry"/>
                </mxCell>
                <mxCell id="13" value="&lt;ul&gt;&lt;li&gt;DataDisplay&lt;/li&gt;&lt;li&gt;Dyn_Query&lt;/li&gt;&lt;li&gt;Dyn_BindingFun&lt;/li&gt;&lt;/ul&gt;" style="text;strokeColor=none;fillColor=none;html=1;whiteSpace=wrap;verticalAlign=middle;overflow=hidden;" parent="1" vertex="1">
                    <mxGeometry x="510" y="143" width="190" height="80" as="geometry"/>
                </mxCell>
            </root>
        </mxGraphModel>
    </diagram>
</mxfile>